<?xml version="1.0" encoding="utf-8"?>
<!-- Generator: Adobe Illustrator 17.0.0, SVG Export Plug-In . SVG Version: 6.00 Build 0)  -->
<!DOCTYPE svg PUBLIC "-//W3C//DTD SVG 1.1//EN" "http://www.w3.org/Graphics/SVG/1.1/DTD/svg11.dtd">
<svg version="1.1" id="图层_1" xmlns="http://www.w3.org/2000/svg" xmlns:xlink="http://www.w3.org/1999/xlink" x="0px" y="0px"
	 width="16px" height="16px" viewBox="0 0 16 16" enable-background="new 0 0 16 16" xml:space="preserve">
<g>
	<defs>
		<path id="SVGID_1_" d="M8.288,8.386c-0.801,0-1.318-0.516-1.318-0.988c0-0.801,0.516-1.318,1.318-1.318
			c0.472,0,0.988,0.516,0.988,1.318C9.277,7.87,8.76,8.386,8.288,8.386z M14.512,8.416l-1.777-1.568v6.917
			c0.008,0.349-0.164,0.769-0.384,0.769H3.897c-0.205,0-0.494-0.419-0.384-0.769V6.849L1.975,8.386
			C1.786,8.502,1.207,8.77,1.207,8.77c-0.009-0.295-0.009-0.52,0-0.769l6.533-6.533c0.146,0.014,0.275-0.012,0.384,0
			c0.125-0.012,0.254,0.014,0.384,0l6.533,6.533c0.16,0.287,0.16,0.703,0.16,0.703S14.767,8.669,14.512,8.416z"/>
	</defs>
	<clipPath id="SVGID_2_">
		<use xlink:href="#SVGID_1_"  overflow="visible"/>
	</clipPath>
	<g clip-path="url(#SVGID_2_)">
		<defs>
			<rect id="SVGID_3_" x="-39.91" y="-481.946" width="288.204" height="512.62"/>
		</defs>
		<clipPath id="SVGID_4_">
			<use xlink:href="#SVGID_3_"  overflow="visible"/>
		</clipPath>
		<g clip-path="url(#SVGID_4_)">
			<path fill="#333333" d="M12.351,15.303H3.897c-0.33,0-0.651-0.179-0.881-0.492c-0.249-0.338-0.346-0.754-0.272-1.136V8.704
				L2.455,8.993L2.379,9.04C2.167,9.171,1.675,9.4,1.529,9.468L0.473,9.956L0.439,8.793c-0.009-0.309-0.009-0.554,0-0.818
				l0.011-0.303L7.451,0.67l0.36,0.034c0.052,0,0.08-0.001,0.107-0.002c0.074-0.004,0.143-0.006,0.208-0.003
				c0.073-0.003,0.145,0,0.219,0.003L8.42,0.704l0.365-0.038l0.267,0.259l6.608,6.608l0.052,0.093
				c0.266,0.477,0.233,0.865,0.206,1.177l-0.109,1.292l-1.065-0.658c-0.031-0.019-0.301-0.189-0.598-0.477l-0.642-0.514v5.318
				c0.008,0.34-0.102,0.881-0.439,1.225C12.868,15.192,12.614,15.303,12.351,15.303z M4.281,13.766h7.686l0-7.751L8.188,2.235
				L8.122,2.241L8.06,2.235L4.281,6.014V13.766z M8.289,9.154C7,9.154,6.202,8.242,6.202,7.398c0-1.228,0.858-2.086,2.086-2.086
				c0.845,0,1.757,0.798,1.757,2.086C10.045,8.301,9.191,9.154,8.289,9.154z M8.275,6.849C7.91,6.853,7.74,7.028,7.74,7.398
				c0.016,0.042,0.186,0.22,0.549,0.22c0.066-0.014,0.205-0.153,0.22-0.232C8.508,7.045,8.341,6.875,8.275,6.849z"/>
		</g>
	</g>
</g>
</svg>
