<?xml version="1.0" encoding="utf-8"?>
<!-- Generator: Adobe Illustrator 17.0.0, SVG Export Plug-In . SVG Version: 6.00 Build 0)  -->
<!DOCTYPE svg PUBLIC "-//W3C//DTD SVG 1.1//EN" "http://www.w3.org/Graphics/SVG/1.1/DTD/svg11.dtd">
<svg version="1.1" id="图层_1" xmlns="http://www.w3.org/2000/svg" xmlns:xlink="http://www.w3.org/1999/xlink" x="0px" y="0px"
	 width="16px" height="16px" viewBox="0 0 16 16" enable-background="new 0 0 16 16" xml:space="preserve">
<g>
	<defs>
		<path id="SVGID_1_" d="M1,15h14v-0.778H1V15z M4.889,8c0.065-0.064-0.513-0.293-0.778-0.778c0.063-0.575,0.063-1.126,0-1.167
			C4.218,5.717,4.288,5.328,4.5,5.278c0.143-0.152,0.126-1.454,0-1.944c0.161,0.014,0.248-1.014,0.778-1.556
			C5.914,1.384,6.65,1.405,6.833,1.389c-0.083,0.036,0.237-0.204,0.389,0L8.389,1C8.35,1,8.609,1,8.778,1
			c0.129,0.132,0.37,0.291,0.778,0.778c-0.053-0.098,0.74-0.178,1.167,0c0.397,0.378,0.586,0.855,0.778,1.556
			c-0.113,0.764-0.1,1.17,0,1.556c-0.127,0.17-0.14,0.254,0,0.389c-0.14-0.135,0.079-0.011,0.389,0c-0.082,0.501-0.02,1.026,0,1.556
			c-0.09,0.211-0.06,0.564-1.167,1.167c0.253-0.121-0.05,0.633-0.778,1.167c0.101,0.04,0.079,0.477,0,0.778
			c0.088-0.019,0.031,0.127,0,0c0.163,0.374,0.277,0.595,0.778,0.778c0.288,0.046,2.321,0.285,3.111,1.167
			c0.787,0.548,0.974,0.595,1.167,2.333h-0.778c-0.057,0-0.128-0.806-0.389-1.167c-0.126-0.399-0.492-0.778-1.556-1.167
			c0.309,0.115-0.102-0.079-0.778,0c-0.516-0.273-1.726-0.423-2.333-1.167C9.02,9.974,9.657,8.471,9.944,8
			c0.244-0.317,0.335-0.694,0.389-0.778l0.389-0.389c0.22,0.058,0.27,0.014,0,0c0.27-0.503,0.279-0.668,0-0.778
			c0.22-0.123-0.113-0.173,0-0.778c-0.212,0.261-0.25,0.087,0,0c-0.186-0.195-0.165-0.569,0-0.778c-0.177-0.085-0.197-1.023,0-1.167
			c-0.297-0.515-0.358-0.716-0.389-0.778c-0.159-0.002-0.33-0.038-0.389,0c-0.11-0.047-1.184-0.414-1.167-0.778
			c-0.221,0.137-0.321,0.086-0.389,0H7.222c0.272,0.272,0.136,0.269,0,0c0.1,0.283-1.17,0.585-1.167,0.389
			C5.985,2.418,5.522,3.054,5.278,3.333c0.2,0.674,0.2,1.525,0,1.556c0.204,0.12,0.204,0.214,0,0.389c0.218-0.104,0.255,0.112,0,0
			c0.106,0.434,0.029,0.543,0,0.778c-0.225-0.145-0.269,0.12,0,0.389c-0.225,0.3-0.186,0.578,0,0.389
			c-0.175,0.214-0.045,0.306,0,0.389c0.248,0.032,0.334,0.067,0,0c0.334,0.067,1.652,3.264,1.556,3.5
			C6.22,11.201,5.69,11.51,5.278,11.889c-1.007-0.194-1.87,0.027-2.333,0c-0.273,0.424-0.703,0.751-1.167,1.167
			c0.293-0.156,0.179,0.091,0,0.389c0.092,0.594,0.093,0.778,0,0.778H1c0,0,0.085-1.022,0.389-1.167
			c-0.128-0.394-0.054-0.668,0.389-1.167c0.504-0.366,0.911-0.569,1.556-0.778c0.188-0.109,0.674-0.197,1.167-0.389
			c0.288,0.068,0.91-0.042,1.167-0.389C6.006,10.283,5.243,8.616,4.889,8z"/>
	</defs>
	<clipPath id="SVGID_2_">
		<use xlink:href="#SVGID_1_"  overflow="visible"/>
	</clipPath>
	<g clip-path="url(#SVGID_2_)">
		<defs>
			<rect id="SVGID_3_" x="-234.667" y="-863.111" width="291.667" height="894.444"/>
		</defs>
		<clipPath id="SVGID_4_">
			<use xlink:href="#SVGID_3_"  overflow="visible"/>
		</clipPath>
		<rect x="-0.944" y="-0.944" clip-path="url(#SVGID_4_)" fill="#333333" width="17.889" height="17.889"/>
	</g>
</g>
</svg>
