<?xml version="1.0" encoding="utf-8"?>
<!-- Generator: Adobe Illustrator 17.0.0, SVG Export Plug-In . SVG Version: 6.00 Build 0)  -->
<!DOCTYPE svg PUBLIC "-//W3C//DTD SVG 1.1//EN" "http://www.w3.org/Graphics/SVG/1.1/DTD/svg11.dtd">
<svg version="1.1" id="图层_1" xmlns="http://www.w3.org/2000/svg" xmlns:xlink="http://www.w3.org/1999/xlink" x="0px" y="0px"
	 width="16px" height="16px" viewBox="0 0 16 16" enable-background="new 0 0 16 16" xml:space="preserve">
<g>
	<defs>
		<path id="SVGID_1_" d="M6.446,7.613c0-0.945,0.609-1.554,1.554-1.554c0.557,0,1.166,0.609,1.166,1.554
			C9.166,8.17,8.557,8.779,8,8.779C7.055,8.779,6.446,8.17,6.446,7.613z M14.247,8.314c-0.258-0.255-1.584-1.478-1.584-1.478v6.994
			c0.008,0.353-0.166,0.777-0.389,0.777H3.726c-0.207,0-0.499-0.424-0.389-0.777c0,0-0.086-7.039,0-6.994
			C3.252,6.79,1.784,8.39,1.784,8.39C1.592,8.508,1.007,8.779,1.007,8.779c-0.009-0.298-0.009-0.525,0-0.777l6.605-6.605
			C7.76,1.41,7.89,1.385,8,1.396c0.126-0.012,0.257,0.014,0.389,0l6.605,6.605c0.002,0.184,0.135,0.367,0.11,0.665
			C15.104,8.667,14.505,8.569,14.247,8.314z"/>
	</defs>
	<use xlink:href="#SVGID_1_"  overflow="visible" fill-rule="evenodd" clip-rule="evenodd"/>
	<clipPath id="SVGID_2_">
		<use xlink:href="#SVGID_1_"  overflow="visible"/>
	</clipPath>
	<g clip-path="url(#SVGID_2_)">
		<defs>
			<rect id="SVGID_3_" x="-40.568" y="-862.734" width="291.411" height="893.66"/>
		</defs>
		<use xlink:href="#SVGID_3_"  overflow="visible"/>
		<clipPath id="SVGID_4_">
			<use xlink:href="#SVGID_3_"  overflow="visible"/>
		</clipPath>
		<rect x="-0.943" y="-0.55" clip-path="url(#SVGID_4_)" fill="#040000"  width="17.885" height="17.099"/>
	</g>
</g>
</svg>
