<?xml version="1.0" encoding="utf-8"?>
<!-- Generator: Adobe Illustrator 17.0.0, SVG Export Plug-In . SVG Version: 6.00 Build 0)  -->
<!DOCTYPE svg PUBLIC "-//W3C//DTD SVG 1.1//EN" "http://www.w3.org/Graphics/SVG/1.1/DTD/svg11.dtd">
<svg version="1.1" id="图层_1" xmlns="http://www.w3.org/2000/svg" xmlns:xlink="http://www.w3.org/1999/xlink" x="0px" y="0px"
	 width="16px" height="16px" viewBox="0 0 16 16" enable-background="new 0 0 16 16" xml:space="preserve">
<g>
	<defs>
		<path id="SVGID_1_" d="M8.389,9.556c0-0.644,0.519-1.167,1.167-1.167h4.278C14.478,8.389,15,8.908,15,9.556v4.278
			C15,14.478,14.481,15,13.833,15H9.556c-0.644,0-1.167-0.519-1.167-1.167V9.556z M1,9.556c0-0.644,0.519-1.167,1.167-1.167h4.278
			c0.644,0,1.167,0.519,1.167,1.167v4.278C7.611,14.478,7.092,15,6.444,15H2.167C1.522,15,1,14.481,1,13.833V9.556z M8.389,2.167
			C8.389,1.522,8.908,1,9.556,1h4.278C14.478,1,15,1.519,15,2.167v4.278c0,0.644-0.519,1.167-1.167,1.167H9.556
			c-0.644,0-1.167-0.519-1.167-1.167V2.167z M1,2.167C1,1.522,1.519,1,2.167,1h4.278c0.644,0,1.167,0.519,1.167,1.167v4.278
			c0,0.644-0.519,1.167-1.167,1.167H2.167C1.522,7.611,1,7.092,1,6.444V2.167z"/>
	</defs>
	<use xlink:href="#SVGID_1_"  overflow="visible" fill-rule="evenodd" clip-rule="evenodd"/>
	<clipPath id="SVGID_2_">
		<use xlink:href="#SVGID_1_"  overflow="visible"/>
	</clipPath>
	<g clip-path="url(#SVGID_2_)">
		<defs>
			<rect id="SVGID_3_" x="-98.167" y="-866.611" width="291.667" height="894.444"/>
		</defs>
		<use xlink:href="#SVGID_3_"  overflow="visible"/>
		<clipPath id="SVGID_4_">
			<use xlink:href="#SVGID_3_"  overflow="visible"/>
		</clipPath>
		<rect x="-0.944" y="-0.944" clip-path="url(#SVGID_4_)" width="17.889" height="17.889"/>
	</g>
</g>
</svg>
